# xmcd
#
# Track frame offsets:
#	150
#	17417
#	34742
#	49375
#	64662
#	80847
#	95687
#	110677
#	123860
#	141057
#	158407
#	173005
#	188250
#	204370
#	219147
#	234167
#
# Disc length: 3300 seconds
#
# Revision: 0
# Processed by: cddbd v1.5.1PL2 Copyright (c) Steve Scherf et al.
# Submitted via: audiograbber 1.83.01
#
DISCID=c40ce210
DTITLE=Sound Choice - sc2136
DYEAR=1900
DGENRE=Karaoke Country
TTITLE0=Anderson, John - I Wish I Could Have Been There
TTITLE1=Anderson, John - Somebody Slap Me
TTITLE2=Anderson, John - Chicken Truck
TTITLE3=Anderson, John - Swingin'
TTITLE4=Anderson, John - Seminole Wind
TTITLE5=Anderson, John - Country Till I Die
TTITLE6=Anderson, John - Money In The Bank
TTITLE7=Anderson, John - I Fell In The Water
TTITLE8=Anderson, John - I Wish I Could Have Been There (Vocal)
TTITLE9=Anderson, John - Somebody Slap Me (Vocal)
TTITLE10=Anderson, John - Chicken Truck (Vocal)
TTITLE11=Anderson, John - Swingin' (Vocal)
TTITLE12=Anderson, John - Seminole Wind (Vocal)
TTITLE13=Anderson, John - Country Till I Die (Vocal)
TTITLE14=Anderson, John - Money In The Bank (Vocal)
TTITLE15=Anderson, John - I Fell In The Water (Vocal)
EXTD=
EXTT0=
EXTT1=
EXTT2=
EXTT3=
EXTT4=
EXTT5=
EXTT6=
EXTT7=
EXTT8=
EXTT9=
EXTT10=
EXTT11=
EXTT12=
EXTT13=
EXTT14=
EXTT15=
PLAYORDER=
